<svg width="32" height="22" viewBox="0 0 32 22" fill="none" xmlns="http://www.w3.org/2000/svg">
<path d="M10.5503 0.939941C4.90826 0.939941 0.320312 5.52789 0.320312 11.1699C0.320312 16.812 4.90826 21.3999 10.5503 21.3999C16.1924 21.3999 20.7803 16.812 20.7803 11.1699C20.7803 5.52789 16.1924 0.939941 10.5503 0.939941ZM16.1603 6.87994C16.3291 6.87994 16.4979 6.94427 16.627 7.0733C16.885 7.33136 16.885 7.74852 16.627 8.00658L8.70695 15.9266C8.57825 16.0553 8.40927 16.1199 8.24031 16.1199C8.07135 16.1199 7.90237 16.0553 7.77367 15.9266L4.47367 12.6266C4.21561 12.3685 4.21561 11.9514 4.47367 11.6933C4.73173 11.4352 5.14889 11.4352 5.40695 11.6933L8.24031 14.5267L15.6937 7.0733C15.8227 6.94427 15.9915 6.87994 16.1603 6.87994ZM24.0803 10.8399C23.9053 10.8399 23.7374 10.9095 23.6136 11.0332C23.4898 11.157 23.4203 11.3249 23.4203 11.4999C23.4203 11.675 23.4898 11.8429 23.6136 11.9666C23.7374 12.0904 23.9053 12.1599 24.0803 12.1599H32.0003V10.8399H24.0803Z" fill="url(#paint0_linear_177_1870)"/>
<defs>
<linearGradient id="paint0_linear_177_1870" x1="36.0619" y1="0.939942" x2="13.9161" y2="31.3198" gradientUnits="userSpaceOnUse">
<stop offset="0.25" stop-color="#3B768F"/>
<stop offset="0.536458" stop-color="#3EC6FF"/>
<stop offset="0.817708" stop-color="#3B768F"/>
</linearGradient>
</defs>
</svg>
