<svg width="26" height="18" viewBox="0 0 26 18" fill="none" xmlns="http://www.w3.org/2000/svg">
<path d="M0.435547 0V0.5V18H25.4227V0H0.435547ZM1.43503 1H24.4233V2.28125C24.2008 2.47479 15.3364 10.1857 14.6011 10.8232C13.9555 11.3831 13.2681 11.501 12.9291 11.501C12.5902 11.501 11.9028 11.3831 11.2571 10.8232C11.0718 10.6625 9.74211 9.50583 8.78088 8.66992L8.77112 8.65723L8.76917 8.65918C5.91496 6.1771 1.60115 2.42576 1.43503 2.28125V1ZM1.43503 3.60254C2.30828 4.36228 5.35366 7.01119 7.9727 9.28906L1.43503 14.457V3.60254ZM24.4233 3.60254V14.459L17.8719 9.30078C20.4896 7.02411 23.5482 4.36386 24.4233 3.60254ZM8.73988 9.95703C9.35744 10.4941 10.4618 11.4546 10.6032 11.5771C11.4568 12.3173 12.3685 12.499 12.9291 12.499C13.4897 12.499 14.4015 12.3173 15.2551 11.5771C15.3954 11.4555 16.4936 10.4993 17.1038 9.96875L24.4233 15.7324V17H1.43503V15.7324L8.73988 9.95703Z" fill="url(#paint0_linear_177_2236)"/>
<defs>
<linearGradient id="paint0_linear_177_2236" x1="12.9291" y1="0" x2="12.9291" y2="18" gradientUnits="userSpaceOnUse">
<stop stop-color="#4ABCEC"/>
<stop offset="1" stop-color="#4A8BEC"/>
</linearGradient>
</defs>
</svg>
